<svg id="visual" viewBox="0 0 960 125" width="960" height="125" xmlns="http://www.w3.org/2000/svg" xmlns:xlink="http://www.w3.org/1999/xlink" version="1.1"><path d="M0 93L11.5 89.8C23 86.7 46 80.3 68.8 78.5C91.7 76.7 114.3 79.3 137.2 80.7C160 82 183 82 205.8 84.3C228.7 86.7 251.3 91.3 274.2 92.7C297 94 320 92 342.8 89.3C365.7 86.7 388.3 83.3 411.2 82.5C434 81.7 457 83.3 480 82C503 80.7 526 76.3 548.8 76.8C571.7 77.3 594.3 82.7 617.2 86.7C640 90.7 663 93.3 685.8 93.2C708.7 93 731.3 90 754.2 88.8C777 87.7 800 88.3 822.8 87.5C845.7 86.7 868.3 84.3 891.2 83.5C914 82.7 937 83.3 948.5 83.7L960 84L960 0L948.5 0C937 0 914 0 891.2 0C868.3 0 845.7 0 822.8 0C800 0 777 0 754.2 0C731.3 0 708.7 0 685.8 0C663 0 640 0 617.2 0C594.3 0 571.7 0 548.8 0C526 0 503 0 480 0C457 0 434 0 411.2 0C388.3 0 365.7 0 342.8 0C320 0 297 0 274.2 0C251.3 0 228.7 0 205.8 0C183 0 160 0 137.2 0C114.3 0 91.7 0 68.8 0C46 0 23 0 11.5 0L0 0Z" fill="#d500dd"></path><path d="M0 72L11.5 69.7C23 67.3 46 62.7 68.8 62.7C91.7 62.7 114.3 67.3 137.2 72.2C160 77 183 82 205.8 81.8C228.7 81.7 251.3 76.3 274.2 73C297 69.7 320 68.3 342.8 68C365.7 67.7 388.3 68.3 411.2 71.5C434 74.7 457 80.3 480 79C503 77.7 526 69.3 548.8 65.7C571.7 62 594.3 63 617.2 64.5C640 66 663 68 685.8 67.5C708.7 67 731.3 64 754.2 67.3C777 70.7 800 80.3 822.8 82.3C845.7 84.3 868.3 78.7 891.2 76.8C914 75 937 77 948.5 78L960 79L960 0L948.5 0C937 0 914 0 891.2 0C868.3 0 845.7 0 822.8 0C800 0 777 0 754.2 0C731.3 0 708.7 0 685.8 0C663 0 640 0 617.2 0C594.3 0 571.7 0 548.8 0C526 0 503 0 480 0C457 0 434 0 411.2 0C388.3 0 365.7 0 342.8 0C320 0 297 0 274.2 0C251.3 0 228.7 0 205.8 0C183 0 160 0 137.2 0C114.3 0 91.7 0 68.8 0C46 0 23 0 11.5 0L0 0Z" fill="#bc00bf"></path><path d="M0 61L11.5 59C23 57 46 53 68.8 52.5C91.7 52 114.3 55 137.2 56C160 57 183 56 205.8 55.5C228.7 55 251.3 55 274.2 57.2C297 59.3 320 63.7 342.8 66.5C365.7 69.3 388.3 70.7 411.2 68.7C434 66.7 457 61.3 480 60.3C503 59.3 526 62.7 548.8 63.7C571.7 64.7 594.3 63.3 617.2 60.8C640 58.3 663 54.7 685.8 54C708.7 53.3 731.3 55.7 754.2 56.5C777 57.3 800 56.7 822.8 57.8C845.7 59 868.3 62 891.2 65.8C914 69.7 937 74.3 948.5 76.7L960 79L960 0L948.5 0C937 0 914 0 891.2 0C868.3 0 845.7 0 822.8 0C800 0 777 0 754.2 0C731.3 0 708.7 0 685.8 0C663 0 640 0 617.2 0C594.3 0 571.7 0 548.8 0C526 0 503 0 480 0C457 0 434 0 411.2 0C388.3 0 365.7 0 342.8 0C320 0 297 0 274.2 0C251.3 0 228.7 0 205.8 0C183 0 160 0 137.2 0C114.3 0 91.7 0 68.8 0C46 0 23 0 11.5 0L0 0Z" fill="#a400a2"></path><path d="M0 46L11.5 48.7C23 51.3 46 56.7 68.8 60C91.7 63.3 114.3 64.7 137.2 63.2C160 61.7 183 57.3 205.8 56.7C228.7 56 251.3 59 274.2 59.7C297 60.3 320 58.7 342.8 58.3C365.7 58 388.3 59 411.2 59.2C434 59.3 457 58.7 480 60C503 61.3 526 64.7 548.8 63.5C571.7 62.3 594.3 56.7 617.2 54C640 51.3 663 51.7 685.8 51.3C708.7 51 731.3 50 754.2 51.8C777 53.7 800 58.3 822.8 59.2C845.7 60 868.3 57 891.2 54C914 51 937 48 948.5 46.5L960 45L960 0L948.5 0C937 0 914 0 891.2 0C868.3 0 845.7 0 822.8 0C800 0 777 0 754.2 0C731.3 0 708.7 0 685.8 0C663 0 640 0 617.2 0C594.3 0 571.7 0 548.8 0C526 0 503 0 480 0C457 0 434 0 411.2 0C388.3 0 365.7 0 342.8 0C320 0 297 0 274.2 0C251.3 0 228.7 0 205.8 0C183 0 160 0 137.2 0C114.3 0 91.7 0 68.8 0C46 0 23 0 11.5 0L0 0Z" fill="#8b0087"></path><path d="M0 53L11.5 52.7C23 52.3 46 51.7 68.8 49C91.7 46.3 114.3 41.7 137.2 40.7C160 39.7 183 42.3 205.8 43.3C228.7 44.3 251.3 43.7 274.2 43.3C297 43 320 43 342.8 41.3C365.7 39.7 388.3 36.3 411.2 35.5C434 34.7 457 36.3 480 36.7C503 37 526 36 548.8 38C571.7 40 594.3 45 617.2 47.8C640 50.7 663 51.3 685.8 50.7C708.7 50 731.3 48 754.2 48C777 48 800 50 822.8 50.5C845.7 51 868.3 50 891.2 47.7C914 45.3 937 41.7 948.5 39.8L960 38L960 0L948.5 0C937 0 914 0 891.2 0C868.3 0 845.7 0 822.8 0C800 0 777 0 754.2 0C731.3 0 708.7 0 685.8 0C663 0 640 0 617.2 0C594.3 0 571.7 0 548.8 0C526 0 503 0 480 0C457 0 434 0 411.2 0C388.3 0 365.7 0 342.8 0C320 0 297 0 274.2 0C251.3 0 228.7 0 205.8 0C183 0 160 0 137.2 0C114.3 0 91.7 0 68.8 0C46 0 23 0 11.5 0L0 0Z" fill="#73006d"></path><path d="M0 37L11.5 37.2C23 37.3 46 37.7 68.8 38.7C91.7 39.7 114.3 41.3 137.2 39.3C160 37.3 183 31.7 205.8 28.3C228.7 25 251.3 24 274.2 25.8C297 27.7 320 32.3 342.8 33.5C365.7 34.7 388.3 32.3 411.2 31C434 29.7 457 29.3 480 29.8C503 30.3 526 31.7 548.8 31.5C571.7 31.3 594.3 29.7 617.2 29C640 28.3 663 28.7 685.8 30.5C708.7 32.3 731.3 35.7 754.2 35.7C777 35.7 800 32.3 822.8 30C845.7 27.7 868.3 26.3 891.2 28.7C914 31 937 37 948.5 40L960 43L960 0L948.5 0C937 0 914 0 891.2 0C868.3 0 845.7 0 822.8 0C800 0 777 0 754.2 0C731.3 0 708.7 0 685.8 0C663 0 640 0 617.2 0C594.3 0 571.7 0 548.8 0C526 0 503 0 480 0C457 0 434 0 411.2 0C388.3 0 365.7 0 342.8 0C320 0 297 0 274.2 0C251.3 0 228.7 0 205.8 0C183 0 160 0 137.2 0C114.3 0 91.7 0 68.8 0C46 0 23 0 11.5 0L0 0Z" fill="#5c0055"></path><path d="M0 27L11.5 25.2C23 23.3 46 19.7 68.8 19.2C91.7 18.7 114.3 21.3 137.2 22.7C160 24 183 24 205.8 25C228.7 26 251.3 28 274.2 28.8C297 29.7 320 29.3 342.8 27.2C365.7 25 388.3 21 411.2 19.7C434 18.3 457 19.7 480 19.3C503 19 526 17 548.8 17.5C571.7 18 594.3 21 617.2 23C640 25 663 26 685.8 25.2C708.7 24.3 731.3 21.7 754.2 20.8C777 20 800 21 822.8 21.7C845.7 22.3 868.3 22.7 891.2 22.2C914 21.7 937 20.3 948.5 19.7L960 19L960 0L948.5 0C937 0 914 0 891.2 0C868.3 0 845.7 0 822.8 0C800 0 777 0 754.2 0C731.3 0 708.7 0 685.8 0C663 0 640 0 617.2 0C594.3 0 571.7 0 548.8 0C526 0 503 0 480 0C457 0 434 0 411.2 0C388.3 0 365.7 0 342.8 0C320 0 297 0 274.2 0C251.3 0 228.7 0 205.8 0C183 0 160 0 137.2 0C114.3 0 91.7 0 68.8 0C46 0 23 0 11.5 0L0 0Z" fill="#45003e"></path><path d="M0 18L11.5 17.2C23 16.3 46 14.7 68.8 14.2C91.7 13.7 114.3 14.3 137.2 13.5C160 12.7 183 10.3 205.8 10C228.7 9.7 251.3 11.3 274.2 12.8C297 14.3 320 15.7 342.8 14.7C365.7 13.7 388.3 10.3 411.2 9.7C434 9 457 11 480 11C503 11 526 9 548.8 8.3C571.7 7.7 594.3 8.3 617.2 10C640 11.7 663 14.3 685.8 14C708.7 13.7 731.3 10.3 754.2 10.3C777 10.3 800 13.7 822.8 13.5C845.7 13.3 868.3 9.7 891.2 9.8C914 10 937 14 948.5 16L960 18L960 0L948.5 0C937 0 914 0 891.2 0C868.3 0 845.7 0 822.8 0C800 0 777 0 754.2 0C731.3 0 708.7 0 685.8 0C663 0 640 0 617.2 0C594.3 0 571.7 0 548.8 0C526 0 503 0 480 0C457 0 434 0 411.2 0C388.3 0 365.7 0 342.8 0C320 0 297 0 274.2 0C251.3 0 228.7 0 205.8 0C183 0 160 0 137.2 0C114.3 0 91.7 0 68.8 0C46 0 23 0 11.5 0L0 0Z" fill="#2f0029"></path></svg>