<svg id="visual" viewBox="0 0 960 540" width="960" height="540" xmlns="http://www.w3.org/2000/svg" xmlns:xlink="http://www.w3.org/1999/xlink" version="1.1"><path d="M0 121L22.8 129.2C45.7 137.3 91.3 153.7 137 154.3C182.7 155 228.3 140 274 139.7C319.7 139.3 365.3 153.7 411.2 153.8C457 154 503 140 548.8 135C594.7 130 640.3 134 686 132.7C731.7 131.3 777.3 124.7 823 124C868.7 123.3 914.3 128.7 937.2 131.3L960 134L960 0L937.2 0C914.3 0 868.7 0 823 0C777.3 0 731.7 0 686 0C640.3 0 594.7 0 548.8 0C503 0 457 0 411.2 0C365.3 0 319.7 0 274 0C228.3 0 182.7 0 137 0C91.3 0 45.7 0 22.8 0L0 0Z" fill="#f701ff"></path><path d="M0 132L22.8 124C45.7 116 91.3 100 137 92.2C182.7 84.3 228.3 84.7 274 84.8C319.7 85 365.3 85 411.2 88.8C457 92.7 503 100.3 548.8 98.7C594.7 97 640.3 86 686 90C731.7 94 777.3 113 823 121C868.7 129 914.3 126 937.2 124.5L960 123L960 0L937.2 0C914.3 0 868.7 0 823 0C777.3 0 731.7 0 686 0C640.3 0 594.7 0 548.8 0C503 0 457 0 411.2 0C365.3 0 319.7 0 274 0C228.3 0 182.7 0 137 0C91.3 0 45.7 0 22.8 0L0 0Z" fill="#b300b0"></path><path d="M0 75L22.8 73.7C45.7 72.3 91.3 69.7 137 69.7C182.7 69.7 228.3 72.3 274 74C319.7 75.7 365.3 76.3 411.2 71.8C457 67.3 503 57.7 548.8 57.7C594.7 57.7 640.3 67.3 686 69.2C731.7 71 777.3 65 823 66.3C868.7 67.7 914.3 76.3 937.2 80.7L960 85L960 0L937.2 0C914.3 0 868.7 0 823 0C777.3 0 731.7 0 686 0C640.3 0 594.7 0 548.8 0C503 0 457 0 411.2 0C365.3 0 319.7 0 274 0C228.3 0 182.7 0 137 0C91.3 0 45.7 0 22.8 0L0 0Z" fill="#70006a"></path><path d="M0 59L22.8 58C45.7 57 91.3 55 137 53.8C182.7 52.7 228.3 52.3 274 49.3C319.7 46.3 365.3 40.7 411.2 41.7C457 42.7 503 50.3 548.8 51.5C594.7 52.7 640.3 47.3 686 48C731.7 48.7 777.3 55.3 823 58.7C868.7 62 914.3 62 937.2 62L960 62L960 0L937.2 0C914.3 0 868.7 0 823 0C777.3 0 731.7 0 686 0C640.3 0 594.7 0 548.8 0C503 0 457 0 411.2 0C365.3 0 319.7 0 274 0C228.3 0 182.7 0 137 0C91.3 0 45.7 0 22.8 0L0 0Z" fill="#33002d"></path></svg>