<svg id="visual" viewBox="0 0 900 600" width="900" height="600" xmlns="http://www.w3.org/2000/svg" xmlns:xlink="http://www.w3.org/1999/xlink" version="1.1"><path d="M0 174L21.5 177C43 180 86 186 128.8 195C171.7 204 214.3 216 257.2 217.5C300 219 343 210 385.8 197.8C428.7 185.7 471.3 170.3 514.2 174.8C557 179.3 600 203.7 642.8 210.7C685.7 217.7 728.3 207.3 771.2 208.8C814 210.3 857 223.7 878.5 230.3L900 237L900 0L878.5 0C857 0 814 0 771.2 0C728.3 0 685.7 0 642.8 0C600 0 557 0 514.2 0C471.3 0 428.7 0 385.8 0C343 0 300 0 257.2 0C214.3 0 171.7 0 128.8 0C86 0 43 0 21.5 0L0 0Z" fill="#f701ff"></path><path d="M0 126L21.5 130.3C43 134.7 86 143.3 128.8 152.2C171.7 161 214.3 170 257.2 163.7C300 157.3 343 135.7 385.8 135.2C428.7 134.7 471.3 155.3 514.2 157.7C557 160 600 144 642.8 144.3C685.7 144.7 728.3 161.3 771.2 170.2C814 179 857 180 878.5 180.5L900 181L900 0L878.5 0C857 0 814 0 771.2 0C728.3 0 685.7 0 642.8 0C600 0 557 0 514.2 0C471.3 0 428.7 0 385.8 0C343 0 300 0 257.2 0C214.3 0 171.7 0 128.8 0C86 0 43 0 21.5 0L0 0Z" fill="#b300b0"></path><path d="M0 89L21.5 93.8C43 98.7 86 108.3 128.8 116.3C171.7 124.3 214.3 130.7 257.2 127.2C300 123.7 343 110.3 385.8 102C428.7 93.7 471.3 90.3 514.2 97.7C557 105 600 123 642.8 120.5C685.7 118 728.3 95 771.2 91.2C814 87.3 857 102.7 878.5 110.3L900 118L900 0L878.5 0C857 0 814 0 771.2 0C728.3 0 685.7 0 642.8 0C600 0 557 0 514.2 0C471.3 0 428.7 0 385.8 0C343 0 300 0 257.2 0C214.3 0 171.7 0 128.8 0C86 0 43 0 21.5 0L0 0Z" fill="#70006a"></path><path d="M0 36L21.5 36.8C43 37.7 86 39.3 128.8 42.7C171.7 46 214.3 51 257.2 56.8C300 62.7 343 69.3 385.8 73.5C428.7 77.7 471.3 79.3 514.2 74.5C557 69.7 600 58.3 642.8 54.7C685.7 51 728.3 55 771.2 56.8C814 58.7 857 58.3 878.5 58.2L900 58L900 0L878.5 0C857 0 814 0 771.2 0C728.3 0 685.7 0 642.8 0C600 0 557 0 514.2 0C471.3 0 428.7 0 385.8 0C343 0 300 0 257.2 0C214.3 0 171.7 0 128.8 0C86 0 43 0 21.5 0L0 0Z" fill="#33002d"></path></svg>