<svg id="visual" viewBox="0 0 900 125" width="900" height="125" xmlns="http://www.w3.org/2000/svg" xmlns:xlink="http://www.w3.org/1999/xlink" version="1.1"><path d="M0 31L21.5 33C43 35 86 39 128.8 43.5C171.7 48 214.3 53 257.2 54.8C300 56.7 343 55.3 385.8 49.5C428.7 43.7 471.3 33.3 514.2 32.5C557 31.7 600 40.3 642.8 45.2C685.7 50 728.3 51 771.2 46.7C814 42.3 857 32.7 878.5 27.8L900 23L900 126L878.5 126C857 126 814 126 771.2 126C728.3 126 685.7 126 642.8 126C600 126 557 126 514.2 126C471.3 126 428.7 126 385.8 126C343 126 300 126 257.2 126C214.3 126 171.7 126 128.8 126C86 126 43 126 21.5 126L0 126Z" fill="#dd00d6"></path><path d="M0 44L21.5 43.7C43 43.3 86 42.7 128.8 46.8C171.7 51 214.3 60 257.2 59.5C300 59 343 49 385.8 44.5C428.7 40 471.3 41 514.2 43.2C557 45.3 600 48.7 642.8 52.3C685.7 56 728.3 60 771.2 58C814 56 857 48 878.5 44L900 40L900 126L878.5 126C857 126 814 126 771.2 126C728.3 126 685.7 126 642.8 126C600 126 557 126 514.2 126C471.3 126 428.7 126 385.8 126C343 126 300 126 257.2 126C214.3 126 171.7 126 128.8 126C86 126 43 126 21.5 126L0 126Z" fill="#b504b3"></path><path d="M0 68L21.5 67.3C43 66.7 86 65.3 128.8 66.2C171.7 67 214.3 70 257.2 69.8C300 69.7 343 66.3 385.8 64.7C428.7 63 471.3 63 514.2 66C557 69 600 75 642.8 77.3C685.7 79.7 728.3 78.3 771.2 73.3C814 68.3 857 59.7 878.5 55.3L900 51L900 126L878.5 126C857 126 814 126 771.2 126C728.3 126 685.7 126 642.8 126C600 126 557 126 514.2 126C471.3 126 428.7 126 385.8 126C343 126 300 126 257.2 126C214.3 126 171.7 126 128.8 126C86 126 43 126 21.5 126L0 126Z" fill="#8f0590"></path><path d="M0 76L21.5 75.8C43 75.7 86 75.3 128.8 74C171.7 72.7 214.3 70.3 257.2 72.5C300 74.7 343 81.3 385.8 82.5C428.7 83.7 471.3 79.3 514.2 75.7C557 72 600 69 642.8 70C685.7 71 728.3 76 771.2 78.8C814 81.7 857 82.3 878.5 82.7L900 83L900 126L878.5 126C857 126 814 126 771.2 126C728.3 126 685.7 126 642.8 126C600 126 557 126 514.2 126C471.3 126 428.7 126 385.8 126C343 126 300 126 257.2 126C214.3 126 171.7 126 128.8 126C86 126 43 126 21.5 126L0 126Z" fill="#6c036e"></path><path d="M0 94L21.5 93.2C43 92.3 86 90.7 128.8 89.7C171.7 88.7 214.3 88.3 257.2 89.3C300 90.3 343 92.7 385.8 92.7C428.7 92.7 471.3 90.3 514.2 91.3C557 92.3 600 96.7 642.8 97.2C685.7 97.7 728.3 94.3 771.2 91.8C814 89.3 857 87.7 878.5 86.8L900 86L900 126L878.5 126C857 126 814 126 771.2 126C728.3 126 685.7 126 642.8 126C600 126 557 126 514.2 126C471.3 126 428.7 126 385.8 126C343 126 300 126 257.2 126C214.3 126 171.7 126 128.8 126C86 126 43 126 21.5 126L0 126Z" fill="#4a024e"></path><path d="M0 107L21.5 107.7C43 108.3 86 109.7 128.8 108.5C171.7 107.3 214.3 103.7 257.2 102.5C300 101.3 343 102.7 385.8 104.7C428.7 106.7 471.3 109.3 514.2 111C557 112.7 600 113.3 642.8 113C685.7 112.7 728.3 111.3 771.2 109.5C814 107.7 857 105.3 878.5 104.2L900 103L900 126L878.5 126C857 126 814 126 771.2 126C728.3 126 685.7 126 642.8 126C600 126 557 126 514.2 126C471.3 126 428.7 126 385.8 126C343 126 300 126 257.2 126C214.3 126 171.7 126 128.8 126C86 126 43 126 21.5 126L0 126Z" fill="#2c002f"></path></svg>