<svg id="visual" viewBox="0 0 900 600" width="900" height="600" xmlns="http://www.w3.org/2000/svg" xmlns:xlink="http://www.w3.org/1999/xlink" version="1.1"><rect x="0" y="0" width="900" height="600" fill="#001220"></rect><path d="M0 218L21.5 206.5C43 195 86 172 128.8 172.2C171.7 172.3 214.3 195.7 257.2 195.8C300 196 343 173 385.8 169.7C428.7 166.3 471.3 182.7 514.2 198.3C557 214 600 229 642.8 226.8C685.7 224.7 728.3 205.3 771.2 195.2C814 185 857 184 878.5 183.5L900 183L900 0L878.5 0C857 0 814 0 771.2 0C728.3 0 685.7 0 642.8 0C600 0 557 0 514.2 0C471.3 0 428.7 0 385.8 0C343 0 300 0 257.2 0C214.3 0 171.7 0 128.8 0C86 0 43 0 21.5 0L0 0Z" fill="#f701ff"></path><path d="M0 157L21.5 153.5C43 150 86 143 128.8 144.8C171.7 146.7 214.3 157.3 257.2 161.8C300 166.3 343 164.7 385.8 167C428.7 169.3 471.3 175.7 514.2 171.7C557 167.7 600 153.3 642.8 145.5C685.7 137.7 728.3 136.3 771.2 140.8C814 145.3 857 155.7 878.5 160.8L900 166L900 0L878.5 0C857 0 814 0 771.2 0C728.3 0 685.7 0 642.8 0C600 0 557 0 514.2 0C471.3 0 428.7 0 385.8 0C343 0 300 0 257.2 0C214.3 0 171.7 0 128.8 0C86 0 43 0 21.5 0L0 0Z" fill="#c400c3"></path><path d="M0 118L21.5 124.7C43 131.3 86 144.7 128.8 146.7C171.7 148.7 214.3 139.3 257.2 128C300 116.7 343 103.3 385.8 98.8C428.7 94.3 471.3 98.7 514.2 109.7C557 120.7 600 138.3 642.8 140.2C685.7 142 728.3 128 771.2 118.5C814 109 857 104 878.5 101.5L900 99L900 0L878.5 0C857 0 814 0 771.2 0C728.3 0 685.7 0 642.8 0C600 0 557 0 514.2 0C471.3 0 428.7 0 385.8 0C343 0 300 0 257.2 0C214.3 0 171.7 0 128.8 0C86 0 43 0 21.5 0L0 0Z" fill="#91008c"></path><path d="M0 104L21.5 102.5C43 101 86 98 128.8 98.3C171.7 98.7 214.3 102.3 257.2 96.3C300 90.3 343 74.7 385.8 70.8C428.7 67 471.3 75 514.2 79.7C557 84.3 600 85.7 642.8 87.7C685.7 89.7 728.3 92.3 771.2 95.8C814 99.3 857 103.7 878.5 105.8L900 108L900 0L878.5 0C857 0 814 0 771.2 0C728.3 0 685.7 0 642.8 0C600 0 557 0 514.2 0C471.3 0 428.7 0 385.8 0C343 0 300 0 257.2 0C214.3 0 171.7 0 128.8 0C86 0 43 0 21.5 0L0 0Z" fill="#61005a"></path><path d="M0 52L21.5 52.7C43 53.3 86 54.7 128.8 54.8C171.7 55 214.3 54 257.2 54.3C300 54.7 343 56.3 385.8 52.2C428.7 48 471.3 38 514.2 40C557 42 600 56 642.8 58.8C685.7 61.7 728.3 53.3 771.2 46.3C814 39.3 857 33.7 878.5 30.8L900 28L900 0L878.5 0C857 0 814 0 771.2 0C728.3 0 685.7 0 642.8 0C600 0 557 0 514.2 0C471.3 0 428.7 0 385.8 0C343 0 300 0 257.2 0C214.3 0 171.7 0 128.8 0C86 0 43 0 21.5 0L0 0Z" fill="#33002d"></path></svg>