<svg id="visual" viewBox="0 0 1000 100" width="1000" height="100" xmlns="http://www.w3.org/2000/svg" xmlns:xlink="http://www.w3.org/1999/xlink" version="1.1"><path d="M0 10L15.2 11.3C30.3 12.7 60.7 15.3 91 17.2C121.3 19 151.7 20 182 20.2C212.3 20.3 242.7 19.7 273 19.3C303.3 19 333.7 19 364 19.3C394.3 19.7 424.7 20.3 454.8 20.8C485 21.3 515 21.7 545.2 20C575.3 18.3 605.7 14.7 636 12.3C666.3 10 696.7 9 727 9.8C757.3 10.7 787.7 13.3 818 15.2C848.3 17 878.7 18 909 18.8C939.3 19.7 969.7 20.3 984.8 20.7L1000 21L1000 0L984.8 0C969.7 0 939.3 0 909 0C878.7 0 848.3 0 818 0C787.7 0 757.3 0 727 0C696.7 0 666.3 0 636 0C605.7 0 575.3 0 545.2 0C515 0 485 0 454.8 0C424.7 0 394.3 0 364 0C333.7 0 303.3 0 273 0C242.7 0 212.3 0 182 0C151.7 0 121.3 0 91 0C60.7 0 30.3 0 15.2 0L0 0Z" fill="#4c0048"></path><path d="M0 23L15.2 27.3C30.3 31.7 60.7 40.3 91 44.7C121.3 49 151.7 49 182 47C212.3 45 242.7 41 273 41.5C303.3 42 333.7 47 364 50.3C394.3 53.7 424.7 55.3 454.8 56.2C485 57 515 57 545.2 53.8C575.3 50.7 605.7 44.3 636 42C666.3 39.7 696.7 41.3 727 40.3C757.3 39.3 787.7 35.7 818 34.3C848.3 33 878.7 34 909 35C939.3 36 969.7 37 984.8 37.5L1000 38L1000 19L984.8 18.7C969.7 18.3 939.3 17.7 909 16.8C878.7 16 848.3 15 818 13.2C787.7 11.3 757.3 8.7 727 7.8C696.7 7 666.3 8 636 10.3C605.7 12.7 575.3 16.3 545.2 18C515 19.7 485 19.3 454.8 18.8C424.7 18.3 394.3 17.7 364 17.3C333.7 17 303.3 17 273 17.3C242.7 17.7 212.3 18.3 182 18.2C151.7 18 121.3 17 91 15.2C60.7 13.3 30.3 10.7 15.2 9.3L0 8Z" fill="#760071"></path><path d="M0 43L15.2 46.3C30.3 49.7 60.7 56.3 91 58.8C121.3 61.3 151.7 59.7 182 57.5C212.3 55.3 242.7 52.7 273 54.8C303.3 57 333.7 64 364 67C394.3 70 424.7 69 454.8 70.3C485 71.7 515 75.3 545.2 72.8C575.3 70.3 605.7 61.7 636 57.8C666.3 54 696.7 55 727 52.8C757.3 50.7 787.7 45.3 818 43.8C848.3 42.3 878.7 44.7 909 48.2C939.3 51.7 969.7 56.3 984.8 58.7L1000 61L1000 36L984.8 35.5C969.7 35 939.3 34 909 33C878.7 32 848.3 31 818 32.3C787.7 33.7 757.3 37.3 727 38.3C696.7 39.3 666.3 37.7 636 40C605.7 42.3 575.3 48.7 545.2 51.8C515 55 485 55 454.8 54.2C424.7 53.3 394.3 51.7 364 48.3C333.7 45 303.3 40 273 39.5C242.7 39 212.3 43 182 45C151.7 47 121.3 47 91 42.7C60.7 38.3 30.3 29.7 15.2 25.3L0 21Z" fill="#a2009e"></path><path d="M0 59L15.2 62.5C30.3 66 60.7 73 91 75C121.3 77 151.7 74 182 70.8C212.3 67.7 242.7 64.3 273 66.5C303.3 68.7 333.7 76.3 364 79.3C394.3 82.3 424.7 80.7 454.8 81C485 81.3 515 83.7 545.2 81.8C575.3 80 605.7 74 636 70.2C666.3 66.3 696.7 64.7 727 62.5C757.3 60.3 787.7 57.7 818 56.3C848.3 55 878.7 55 909 57C939.3 59 969.7 63 984.8 65L1000 67L1000 59L984.8 56.7C969.7 54.3 939.3 49.7 909 46.2C878.7 42.7 848.3 40.3 818 41.8C787.7 43.3 757.3 48.7 727 50.8C696.7 53 666.3 52 636 55.8C605.7 59.7 575.3 68.3 545.2 70.8C515 73.3 485 69.7 454.8 68.3C424.7 67 394.3 68 364 65C333.7 62 303.3 55 273 52.8C242.7 50.7 212.3 53.3 182 55.5C151.7 57.7 121.3 59.3 91 56.8C60.7 54.3 30.3 47.7 15.2 44.3L0 41Z" fill="#d000cd"></path><path d="M0 101L15.2 101C30.3 101 60.7 101 91 101C121.3 101 151.7 101 182 101C212.3 101 242.7 101 273 101C303.3 101 333.7 101 364 101C394.3 101 424.7 101 454.8 101C485 101 515 101 545.2 101C575.3 101 605.7 101 636 101C666.3 101 696.7 101 727 101C757.3 101 787.7 101 818 101C848.3 101 878.7 101 909 101C939.3 101 969.7 101 984.8 101L1000 101L1000 65L984.8 63C969.7 61 939.3 57 909 55C878.7 53 848.3 53 818 54.3C787.7 55.7 757.3 58.3 727 60.5C696.7 62.7 666.3 64.3 636 68.2C605.7 72 575.3 78 545.2 79.8C515 81.7 485 79.3 454.8 79C424.7 78.7 394.3 80.3 364 77.3C333.7 74.3 303.3 66.7 273 64.5C242.7 62.3 212.3 65.7 182 68.8C151.7 72 121.3 75 91 73C60.7 71 30.3 64 15.2 60.5L0 57Z" fill="#ff00ff"></path></svg>