<svg id="visual" viewBox="0 0 1200 125" width="1200" height="125" xmlns="http://www.w3.org/2000/svg" xmlns:xlink="http://www.w3.org/1999/xlink" version="1.1"><path d="M0 31L28.5 33C57 35 114 39 171.2 43.5C228.3 48 285.7 53 342.8 54.8C400 56.7 457 55.3 514.2 49.5C571.3 43.7 628.7 33.3 685.8 32.5C743 31.7 800 40.3 857.2 45.2C914.3 50 971.7 51 1028.8 46.7C1086 42.3 1143 32.7 1171.5 27.8L1200 23L1200 126L1171.5 126C1143 126 1086 126 1028.8 126C971.7 126 914.3 126 857.2 126C800 126 743 126 685.8 126C628.7 126 571.3 126 514.2 126C457 126 400 126 342.8 126C285.7 126 228.3 126 171.2 126C114 126 57 126 28.5 126L0 126Z" fill="#dd00d6"></path><path d="M0 44L28.5 43.7C57 43.3 114 42.7 171.2 46.8C228.3 51 285.7 60 342.8 59.5C400 59 457 49 514.2 44.5C571.3 40 628.7 41 685.8 43.2C743 45.3 800 48.7 857.2 52.3C914.3 56 971.7 60 1028.8 58C1086 56 1143 48 1171.5 44L1200 40L1200 126L1171.5 126C1143 126 1086 126 1028.8 126C971.7 126 914.3 126 857.2 126C800 126 743 126 685.8 126C628.7 126 571.3 126 514.2 126C457 126 400 126 342.8 126C285.7 126 228.3 126 171.2 126C114 126 57 126 28.5 126L0 126Z" fill="#b504b3"></path><path d="M0 68L28.5 67.3C57 66.7 114 65.3 171.2 66.2C228.3 67 285.7 70 342.8 69.8C400 69.7 457 66.3 514.2 64.7C571.3 63 628.7 63 685.8 66C743 69 800 75 857.2 77.3C914.3 79.7 971.7 78.3 1028.8 73.3C1086 68.3 1143 59.7 1171.5 55.3L1200 51L1200 126L1171.5 126C1143 126 1086 126 1028.8 126C971.7 126 914.3 126 857.2 126C800 126 743 126 685.8 126C628.7 126 571.3 126 514.2 126C457 126 400 126 342.8 126C285.7 126 228.3 126 171.2 126C114 126 57 126 28.5 126L0 126Z" fill="#8f0590"></path><path d="M0 76L28.5 75.8C57 75.7 114 75.3 171.2 74C228.3 72.7 285.7 70.3 342.8 72.5C400 74.7 457 81.3 514.2 82.5C571.3 83.7 628.7 79.3 685.8 75.7C743 72 800 69 857.2 70C914.3 71 971.7 76 1028.8 78.8C1086 81.7 1143 82.3 1171.5 82.7L1200 83L1200 126L1171.5 126C1143 126 1086 126 1028.8 126C971.7 126 914.3 126 857.2 126C800 126 743 126 685.8 126C628.7 126 571.3 126 514.2 126C457 126 400 126 342.8 126C285.7 126 228.3 126 171.2 126C114 126 57 126 28.5 126L0 126Z" fill="#6c036e"></path><path d="M0 94L28.5 93.2C57 92.3 114 90.7 171.2 89.7C228.3 88.7 285.7 88.3 342.8 89.3C400 90.3 457 92.7 514.2 92.7C571.3 92.7 628.7 90.3 685.8 91.3C743 92.3 800 96.7 857.2 97.2C914.3 97.7 971.7 94.3 1028.8 91.8C1086 89.3 1143 87.7 1171.5 86.8L1200 86L1200 126L1171.5 126C1143 126 1086 126 1028.8 126C971.7 126 914.3 126 857.2 126C800 126 743 126 685.8 126C628.7 126 571.3 126 514.2 126C457 126 400 126 342.8 126C285.7 126 228.3 126 171.2 126C114 126 57 126 28.5 126L0 126Z" fill="#4a024e"></path><path d="M0 107L28.5 107.7C57 108.3 114 109.7 171.2 108.5C228.3 107.3 285.7 103.7 342.8 102.5C400 101.3 457 102.7 514.2 104.7C571.3 106.7 628.7 109.3 685.8 111C743 112.7 800 113.3 857.2 113C914.3 112.7 971.7 111.3 1028.8 109.5C1086 107.7 1143 105.3 1171.5 104.2L1200 103L1200 126L1171.5 126C1143 126 1086 126 1028.8 126C971.7 126 914.3 126 857.2 126C800 126 743 126 685.8 126C628.7 126 571.3 126 514.2 126C457 126 400 126 342.8 126C285.7 126 228.3 126 171.2 126C114 126 57 126 28.5 126L0 126Z" fill="#2c002f"></path></svg>