<svg id="visual" viewBox="0 0 1200 125" width="1200" height="125" xmlns="http://www.w3.org/2000/svg" xmlns:xlink="http://www.w3.org/1999/xlink" version="1.1"><path d="M0 92L28.5 90C57 88 114 84 171.2 79.5C228.3 75 285.7 70 342.8 68.2C400 66.3 457 67.7 514.2 73.5C571.3 79.3 628.7 89.7 685.8 90.5C743 91.3 800 82.7 857.2 77.8C914.3 73 971.7 72 1028.8 76.3C1086 80.7 1143 90.3 1171.5 95.2L1200 100L1200 0L1171.5 0C1143 0 1086 0 1028.8 0C971.7 0 914.3 0 857.2 0C800 0 743 0 685.8 0C628.7 0 571.3 0 514.2 0C457 0 400 0 342.8 0C285.7 0 228.3 0 171.2 0C114 0 57 0 28.5 0L0 0Z" fill="#dd00d6"></path><path d="M0 79L28.5 79.3C57 79.7 114 80.3 171.2 76.2C228.3 72 285.7 63 342.8 63.5C400 64 457 74 514.2 78.5C571.3 83 628.7 82 685.8 79.8C743 77.7 800 74.3 857.2 70.7C914.3 67 971.7 63 1028.8 65C1086 67 1143 75 1171.5 79L1200 83L1200 0L1171.5 0C1143 0 1086 0 1028.8 0C971.7 0 914.3 0 857.2 0C800 0 743 0 685.8 0C628.7 0 571.3 0 514.2 0C457 0 400 0 342.8 0C285.7 0 228.3 0 171.2 0C114 0 57 0 28.5 0L0 0Z" fill="#b504b3"></path><path d="M0 55L28.5 55.7C57 56.3 114 57.7 171.2 56.8C228.3 56 285.7 53 342.8 53.2C400 53.3 457 56.7 514.2 58.3C571.3 60 628.7 60 685.8 57C743 54 800 48 857.2 45.7C914.3 43.3 971.7 44.7 1028.8 49.7C1086 54.7 1143 63.3 1171.5 67.7L1200 72L1200 0L1171.5 0C1143 0 1086 0 1028.8 0C971.7 0 914.3 0 857.2 0C800 0 743 0 685.8 0C628.7 0 571.3 0 514.2 0C457 0 400 0 342.8 0C285.7 0 228.3 0 171.2 0C114 0 57 0 28.5 0L0 0Z" fill="#8f0590"></path><path d="M0 47L28.5 47.2C57 47.3 114 47.7 171.2 49C228.3 50.3 285.7 52.7 342.8 50.5C400 48.3 457 41.7 514.2 40.5C571.3 39.3 628.7 43.7 685.8 47.3C743 51 800 54 857.2 53C914.3 52 971.7 47 1028.8 44.2C1086 41.3 1143 40.7 1171.5 40.3L1200 40L1200 0L1171.5 0C1143 0 1086 0 1028.8 0C971.7 0 914.3 0 857.2 0C800 0 743 0 685.8 0C628.7 0 571.3 0 514.2 0C457 0 400 0 342.8 0C285.7 0 228.3 0 171.2 0C114 0 57 0 28.5 0L0 0Z" fill="#6c036e"></path><path d="M0 29L28.5 29.8C57 30.7 114 32.3 171.2 33.3C228.3 34.3 285.7 34.7 342.8 33.7C400 32.7 457 30.3 514.2 30.3C571.3 30.3 628.7 32.7 685.8 31.7C743 30.7 800 26.3 857.2 25.8C914.3 25.3 971.7 28.7 1028.8 31.2C1086 33.7 1143 35.3 1171.5 36.2L1200 37L1200 0L1171.5 0C1143 0 1086 0 1028.8 0C971.7 0 914.3 0 857.2 0C800 0 743 0 685.8 0C628.7 0 571.3 0 514.2 0C457 0 400 0 342.8 0C285.7 0 228.3 0 171.2 0C114 0 57 0 28.5 0L0 0Z" fill="#4a024e"></path><path d="M0 16L28.5 15.3C57 14.7 114 13.3 171.2 14.5C228.3 15.7 285.7 19.3 342.8 20.5C400 21.7 457 20.3 514.2 18.3C571.3 16.3 628.7 13.7 685.8 12C743 10.3 800 9.7 857.2 10C914.3 10.3 971.7 11.7 1028.8 13.5C1086 15.3 1143 17.7 1171.5 18.8L1200 20L1200 0L1171.5 0C1143 0 1086 0 1028.8 0C971.7 0 914.3 0 857.2 0C800 0 743 0 685.8 0C628.7 0 571.3 0 514.2 0C457 0 400 0 342.8 0C285.7 0 228.3 0 171.2 0C114 0 57 0 28.5 0L0 0Z" fill="#2c002f"></path></svg>